<?xml version="1.0" encoding="utf-8"?>
<!-- Generator: Adobe Illustrator 23.0.2, SVG Export Plug-In . SVG Version: 6.00 Build 0)  -->
<svg version="1.1" id="Layer_1" xmlns="http://www.w3.org/2000/svg" xmlns:xlink="http://www.w3.org/1999/xlink" x="0px" y="0px"
	 viewBox="0 0 25 16.84" style="enable-background:new 0 0 25 16.84;" xml:space="preserve">
<style type="text/css">
	.st0{fill:#DA2128;}
	.st1{fill:#FFCA05;}
	.st2{fill:#FFFFFF;}
</style>
<g>
	<path class="st0" d="M1.54,0.04c0,0-1.48,0-1.48,1.48v11.62c0,0,0,1.48,1.47,1.31l19.56-2.27c0,0,1.47-0.17,1.47-1.66v-9
		c0,0,0-1.48-1.48-1.48H1.54z"/>
	<path class="st1" d="M3.93,2.41c0,0-1.48,0-1.48,1.48v11.62c0,0,0,1.48,1.47,1.31l19.56-2.27c0,0,1.47-0.17,1.47-1.66v-9
		c0,0,0-1.48-1.48-1.48H3.93z"/>
	<path class="st2" d="M14.49,13.36h3.36l2.49-7.35h-2.93l-1.05,3.87h-0.05l-1.07-3.87h-3.25L14.49,13.36z M10.83,13.5
		c0.84,0,1.55-0.16,1.83-0.32v-2.01c-0.15,0.03-0.38,0.07-0.58,0.07c-0.44,0-0.67-0.09-0.67-0.49V8.1h1.28V6.01h-1.28V4.28H8.26
		v1.73H7.43V8.1h0.82v3.09C8.26,13,9.16,13.5,10.83,13.5"/>
</g>
</svg>
