<?xml version="1.0" encoding="utf-8"?>
<!-- Generator: Adobe Illustrator 25.0.1, SVG Export Plug-In . SVG Version: 6.00 Build 0)  -->
<svg version="1.1" id="Layer_1" xmlns="http://www.w3.org/2000/svg" xmlns:xlink="http://www.w3.org/1999/xlink" x="0px" y="0px"
	 viewBox="0 0 551 171.7" style="enable-background:new 0 0 551 171.7;" xml:space="preserve">
<style type="text/css">
	.st0{fill:#0F67DC;}
	.st1{fill:#FFCE46;}
</style>
<g>
	<g>
		<path class="st0" d="M294.1,36.4c2.8-4,4.2-8.7,4.2-14.3c0-3.7-0.6-7.1-1.8-10.1s-3.1-5.5-5.6-7.5c-2.5-2-5.8-3.3-9.8-3.9
			c-0.9-0.2-1.8-0.3-2.9-0.3c-1.1,0-2-0.1-2.6-0.1h-28.1v66.5H260V44.1h14L285,66.6h14.2l-12-24.6C290.1,40.7,292.4,38.9,294.1,36.4
			z M260,11.9h15c0.6,0,1.4,0,2.1,0.1c0.8,0.1,1.5,0.2,2.1,0.4c1.7,0.5,3,1.2,3.9,2.3c0.9,1.1,1.6,2.3,1.9,3.6
			c0.4,1.3,0.5,2.6,0.5,3.8c0,1.2-0.2,2.5-0.5,3.8c-0.4,1.3-1,2.6-1.9,3.6c-0.9,1.1-2.2,1.9-3.9,2.3c-0.6,0.2-1.4,0.3-2.1,0.4
			c-0.8,0.1-1.5,0.1-2.1,0.1h-15V11.9z"/>
		<path class="st0" d="M350,24.4c-1.8-3.3-4.3-5.7-7.8-7c-3.4-1.4-7.3-2-11.7-2c-6,0-10.7,1.3-14.2,3.9c-3.5,2.6-5.8,5.9-7.1,10.1
			l11.4,3.6c0.8-2.3,2.2-3.9,4.2-4.8c2-0.9,3.9-1.3,5.8-1.3c3.3,0,5.7,0.7,7.1,2.1c1.1,1.1,1.8,2.7,2,4.7c-2.1,0.3-4.1,0.6-6,0.9
			c-3.2,0.5-6.1,1-8.7,1.5c-2.6,0.5-4.8,1.1-6.6,1.8c-2.7,1-4.8,2.2-6.4,3.7c-1.6,1.5-2.7,3.1-3.4,5.1c-0.7,1.9-1.1,4-1.1,6.3
			c0,2.8,0.6,5.3,1.9,7.6c1.3,2.3,3.2,4.1,5.6,5.5c2.5,1.4,5.5,2.1,9.1,2.1c4.3,0,7.9-0.7,10.7-2.2c2.2-1.2,4.3-3,6.3-5.3v6.1h11
			V36.2c0-2.3-0.1-4.3-0.3-6.2C351.6,28.1,351,26.3,350,24.4z M338.3,51.5c-0.3,0.7-1,1.6-1.9,2.6c-0.9,1-2.2,2-3.8,2.8
			c-1.6,0.8-3.5,1.2-5.8,1.2c-1.4,0-2.7-0.2-3.7-0.6c-1-0.4-1.9-1.1-2.4-1.9c-0.6-0.8-0.9-1.8-0.9-2.9c0-0.8,0.2-1.6,0.5-2.3
			c0.4-0.7,0.9-1.3,1.7-1.9c0.8-0.6,1.7-1.1,3-1.6c1.1-0.4,2.3-0.8,3.7-1.1c1.4-0.3,3.3-0.7,5.6-1.1c1.5-0.3,3.3-0.6,5.3-0.9
			c0,0.9-0.1,1.8-0.1,3C339.3,48.6,339,50.1,338.3,51.5z"/>
		<path class="st0" d="M396.4,18.4c-3.1-2-6.8-3.1-11.3-3.1c-4.8,0-8.9,1.1-12.5,3.4s-6.3,5.4-8.2,9.3s-2.9,8.5-2.9,13.5
			c0,5,1,9.5,2.9,13.4c1.9,4,4.6,7.1,8.1,9.4c3.4,2.3,7.5,3.5,12,3.5c5,0,9.1-1.2,12.4-3.5c0.4-0.3,0.7-0.6,1.1-0.9v2.9h11.1V0.2
			h-12.6V18.4z M396.9,49.6c-0.7,2.3-1.9,4-3.6,5.3c-1.7,1.3-3.9,1.9-6.7,1.9c-2.7,0-4.9-0.7-6.6-2s-3-3.2-3.8-5.5
			c-0.8-2.3-1.2-4.8-1.2-7.6c0-2.8,0.4-5.3,1.3-7.6c0.9-2.3,2.2-4.1,4-5.5c1.8-1.4,4.1-2.1,6.9-2.1c2.6,0,4.7,0.6,6.3,1.9
			c1.6,1.3,2.8,3,3.5,5.3s1.1,4.9,1.1,7.9C398,44.7,397.6,47.4,396.9,49.6z"/>
		<polygon class="st0" points="431.5,83.2 443.3,83.2 469.3,16.8 456.7,16.8 443.7,50.7 430.6,16.8 417.6,16.8 437.7,66.2 		"/>
	</g>
	<g>
		<path class="st1" d="M290.9,78.3c-2.5-2-5.8-3.3-9.8-3.9c-0.9-0.2-1.8-0.3-2.9-0.3c-1.1,0-2-0.1-2.6-0.1h-28.1v66.5H260V118h15.5
			c0.6,0,1.5,0,2.6-0.1c1.1-0.1,2.1-0.2,3-0.3c3.9-0.6,7.2-1.9,9.7-3.9c2.5-2,4.4-4.5,5.6-7.5c1.2-3,1.8-6.4,1.8-10.1
			s-0.6-7.1-1.8-10.1S293.4,80.3,290.9,78.3z M285.1,99.8c-0.4,1.3-1,2.6-1.9,3.6c-0.9,1.1-2.2,1.9-3.9,2.3
			c-0.6,0.2-1.4,0.3-2.1,0.4c-0.8,0.1-1.5,0.1-2.1,0.1h-15V85.7h15c0.6,0,1.4,0,2.1,0.1c0.8,0.1,1.5,0.2,2.1,0.4
			c1.7,0.5,3,1.2,3.9,2.3c0.9,1.1,1.6,2.3,1.9,3.6c0.4,1.3,0.5,2.6,0.5,3.8C285.6,97.2,285.4,98.4,285.1,99.8z"/>
		<path class="st1" d="M332.2,90.5c-1.5,0.1-3,0.4-4.4,0.8c-1.4,0.4-2.7,1-3.9,1.7c-1.6,0.9-2.9,2.1-4,3.5c-0.5,0.7-1,1.4-1.4,2.1
			v-8h-11.1v49.8h12.6V115c0-1.9,0.3-3.6,0.8-5.1s1.3-2.8,2.3-4c1-1.1,2.3-2,3.7-2.7c1.5-0.7,3.1-1.1,5-1.3c1.8-0.1,3.4,0,4.8,0.4
			V90.6C335.2,90.4,333.7,90.4,332.2,90.5z"/>
		<path class="st1" d="M384.4,98.3c-1.8-3.3-4.3-5.7-7.8-7c-3.4-1.4-7.3-2-11.7-2c-6,0-10.7,1.3-14.2,3.9c-3.5,2.6-5.8,5.9-7.1,10.1
			l11.4,3.6c0.8-2.3,2.2-3.9,4.2-4.8c2-0.9,3.9-1.3,5.8-1.3c3.3,0,5.7,0.7,7.1,2.1c1.1,1.1,1.8,2.7,2,4.7c-2.1,0.3-4.1,0.6-6,0.9
			c-3.2,0.5-6.1,1-8.7,1.5c-2.6,0.5-4.8,1.1-6.6,1.8c-2.7,1-4.8,2.2-6.4,3.7c-1.6,1.5-2.7,3.1-3.4,5.1c-0.7,1.9-1.1,4-1.1,6.3
			c0,2.8,0.6,5.3,1.9,7.6c1.3,2.3,3.2,4.1,5.6,5.5c2.5,1.4,5.5,2.1,9.1,2.1c4.3,0,7.9-0.7,10.7-2.2c2.2-1.2,4.3-3,6.3-5.3v6.1h11
			V110c0-2.3-0.1-4.3-0.3-6.2C385.9,102,385.4,100.1,384.4,98.3z M372.7,125.3c-0.3,0.7-1,1.6-1.9,2.6c-0.9,1-2.2,2-3.8,2.8
			c-1.6,0.8-3.5,1.2-5.8,1.2c-1.4,0-2.7-0.2-3.7-0.6c-1-0.4-1.9-1.1-2.4-1.9c-0.6-0.8-0.9-1.8-0.9-2.9c0-0.8,0.2-1.6,0.5-2.3
			c0.4-0.7,0.9-1.3,1.7-1.9c0.8-0.6,1.7-1.1,3-1.6c1.1-0.4,2.3-0.8,3.7-1.1c1.4-0.3,3.3-0.7,5.6-1.1c1.5-0.3,3.3-0.6,5.3-0.9
			c0,0.9-0.1,1.8-0.1,3C373.7,122.4,373.3,124,372.7,125.3z"/>
		<polygon class="st1" points="416.3,125.1 404.5,90.6 392,90.6 410,140.5 422.6,140.5 440.7,90.6 428.1,90.6 		"/>
		<path class="st1" d="M479.3,92.3c-3.1-2-6.8-3.1-11.3-3.1c-4.8,0-8.9,1.1-12.5,3.4c-3.5,2.3-6.3,5.4-8.2,9.3
			c-2,4-2.9,8.5-2.9,13.5c0,5,1,9.5,2.9,13.4s4.6,7.1,8.1,9.4c3.4,2.3,7.5,3.5,12,3.5c5,0,9.1-1.2,12.4-3.5c0.4-0.3,0.7-0.6,1.1-0.9
			v2.9h11.1V74h-12.6V92.3z M479.7,123.5c-0.7,2.3-1.9,4-3.6,5.3c-1.7,1.3-3.9,1.9-6.7,1.9c-2.7,0-4.9-0.7-6.6-2
			c-1.7-1.4-3-3.2-3.8-5.5c-0.8-2.3-1.2-4.8-1.2-7.6c0-2.8,0.4-5.3,1.3-7.6c0.9-2.3,2.2-4.1,4-5.5c1.8-1.4,4.1-2.1,6.9-2.1
			c2.6,0,4.7,0.6,6.3,1.9c1.6,1.3,2.8,3,3.5,5.3c0.7,2.3,1.1,4.9,1.1,7.9C480.8,118.6,480.5,121.2,479.7,123.5z"/>
		<polygon class="st1" points="538.4,90.6 525.4,124.5 512.3,90.6 499.3,90.6 519.4,140.1 511.2,162.6 522.8,162.6 551,90.6 		"/>
	</g>
	<g>
		<path class="st0" d="M103.8,85.1c0-2,0.2-4.1,0.7-6.1c0.5-2,1.2-3.9,2.1-5.5c0.8-1.6,1.6-2.8,2.5-3.7c0.9-0.9,2-1.8,3.1-2.8
			c1.2-1,2.6-2.3,4.2-4c1.3-1.4,2.1-2.7,2.5-4.1c0.4-1.3,0.6-2.8,0.6-4.4c0-0.8-0.1-1.6-0.3-2.4c-0.2-0.8-0.5-1.4-0.9-2
			c-0.7-1-1.7-1.7-2.9-2.2c-1.2-0.4-2.5-0.7-3.9-0.7c-1,0-2.1,0.1-3.1,0.4c-1,0.2-1.9,0.6-2.6,1.2c-0.9,0.6-1.5,1.5-1.9,2.4
			c-0.4,1-0.6,2.1-0.6,3.3H90.2c0.4-3.3,1.3-6.3,2.8-9c1.5-2.7,3.5-4.9,5.9-6.5c1.8-1.2,3.7-2.1,5.8-2.7c2.1-0.6,4.2-0.9,6.4-0.9
			c3.5,0,6.8,0.5,9.9,1.6c3.1,1.1,5.7,2.9,7.7,5.4c1.4,1.6,2.4,3.4,3.1,5.5c0.7,2.1,1.1,4.2,1.1,6.3c0,3.4-0.8,6.4-2.3,9.1
			c-1.5,2.7-3.4,5.3-5.6,7.7c-1,1-1.8,1.9-2.6,2.7c-0.8,0.8-1.4,1.5-2,2.1c-0.6,0.7-1.1,1.3-1.6,2.1c-0.9,1.4-1.4,2.6-1.6,3.5
			c-0.2,0.9-0.3,2.2-0.3,3.9H103.8z M103.9,103.1V89.8h13.2v13.3H103.9z"/>
	</g>
	<g>
		<polygon class="st1" points="210.9,60.1 192.6,41.7 174.2,60.1 165.1,51 192.6,23.6 220,51 		"/>
	</g>
	<path class="st0" d="M189.1,0.1L189.1,0.1L66.7,0C41.5,0,21,20.5,21,45.6v63.9h12.8V45.6c0-18.1,14.7-32.8,32.8-32.8h109.7
		L189.1,0.1z"/>
	<path class="st1" d="M186.1,35.6v57.3c0,18.1-14.7,32.8-32.8,32.8h-51.7l-27.9,27.9l-23.4-23.4l-9.1,9.1l32.5,32.5l33.2-33.2h46.4
		c25.2,0,45.6-20.5,45.6-45.6V35.6H186.1z"/>
	<g>
		<polygon class="st0" points="27.5,125.3 0,97.8 9.1,88.8 27.5,107.1 45.8,88.8 54.9,97.8 		"/>
	</g>
</g>
</svg>
